<svg width="440" xmlns="http://www.w3.org/2000/svg" height="200" id="screenshot-af065cad-1361-80a4-8006-9d975497b831" viewBox="0 0 440 200" xmlns:xlink="http://www.w3.org/1999/xlink" fill="none" version="1.1"><g id="shape-af065cad-1361-80a4-8006-9d975497b831"><defs><clipPath id="frame-clip-af065cad-1361-80a4-8006-9d975497b831-render-1" class="frame-clip frame-clip-def"><rect rx="0" ry="0" x="0" y="0" width="440" height="200" transform="matrix(1.000000, 0.000000, 0.000000, 1.000000, 0.000000, 0.000000)"/></clipPath></defs><g><g><g clip-path="url(#frame-clip-af065cad-1361-80a4-8006-9d975497b831-render-1)" fill="none"><g class="fills" id="fills-af065cad-1361-80a4-8006-9d975497b831"><rect width="440" height="200" class="frame-background" x="0" transform="matrix(1.000000, 0.000000, 0.000000, 1.000000, 0.000000, 0.000000)" style="fill: rgb(255, 255, 255); fill-opacity: 0;" ry="0" rx="0" y="0"/></g><g class="frame-children"><g id="shape-af065cad-1361-80a4-8006-9dab6735fc64"><g class="fills" id="fills-af065cad-1361-80a4-8006-9dab6735fc64"><path d="M119.418,30.631C148.882,17.419,181.539,17.928,193.324,24.533C231.466,45.911,241.450,111.932,219.597,146.739C207.277,166.362,199.948,161.857,187.677,164.778C168.534,169.335,141.935,171.498,100.757,154.107C72.081,141.996,85.288,122.857,77.186,81.952C69.620,43.760,81.220,47.758,119.418,30.631Z" style="fill: rgb(20, 116, 96); fill-opacity: 0.3;"/></g></g><g id="shape-af065cad-1361-80a4-8006-9dab9f881e88"><g class="fills" id="fills-af065cad-1361-80a4-8006-9dab9f881e88"><path d="M85.585,97.728C65.980,98.565,47.581,91.011,42.352,84.690C25.431,64.234,34.284,25.057,54.322,10.439C65.619,2.197,68.782,6.351,76.380,7.447C88.233,9.157,103.785,13.867,123.304,32.768C136.896,45.930,125.203,53.703,120.805,78.402C116.698,101.464,111.002,96.644,85.585,97.728Z" style="fill: rgb(40, 20, 71); fill-opacity: 0.5;"/></g></g><g id="shape-cee3718c-69b9-80a0-8006-9ed12c0d5d01"><g class="fills" id="fills-cee3718c-69b9-80a0-8006-9ed12c0d5d01"><path d="M71.431,164.805C60.056,160.743,51.542,152.085,50.205,147.197C45.879,131.381,61.076,110.659,76.271,106.809C84.837,104.638,85.561,107.787,89.601,110.186C95.904,113.930,103.534,120.275,109.743,135.790C114.066,146.594,105.395,148.401,96.488,161.739C88.171,174.193,86.179,170.070,71.431,164.805Z" style="fill: rgb(98, 8, 8); fill-opacity: 0.4;"/></g></g><g id="shape-cee3718c-69b9-80a0-8006-9ed1526a8a8f"><g class="fills" id="fills-cee3718c-69b9-80a0-8006-9ed1526a8a8f"><path d="M33.871,89.226C41.855,90.417,48.662,94.927,50.253,97.906C55.401,107.549,48.602,122.795,39.309,127.177C34.070,129.647,33.134,127.711,30.157,126.671C25.512,125.050,19.621,121.920,13.296,112.707C8.891,106.291,14.252,104.042,18.061,94.338C21.617,85.277,23.520,87.683,33.871,89.226Z" style="fill: rgb(182, 122, 4); fill-opacity: 0.4;"/></g></g><g id="shape-af065cad-1361-80a4-8006-9d9832f7511a"><g class="fills" id="fills-af065cad-1361-80a4-8006-9d9832f7511a"><path d="M186.854,175.958C186.681,175.958,186.594,175.784,186.594,175.437C186.594,175.090,186.681,174.916,186.854,174.916C188.763,174.916,190.064,174.511,190.758,173.700C191.452,172.890,191.799,171.298,191.799,168.924L191.799,155.985C191.799,149.617,189.515,146.433,184.946,146.433C183.037,146.433,181.186,146.954,179.393,147.996C177.600,149.038,176.097,150.456,174.882,152.251L174.448,151.209C176.588,148.083,178.890,145.680,181.354,144.001C183.806,142.322,186.420,141.483,189.196,141.483C192.204,141.483,194.546,142.351,196.224,144.088C197.901,145.825,198.739,148.517,198.739,152.164L198.739,168.924C198.739,171.298,199.075,172.890,199.746,173.700C200.405,174.511,201.718,174.916,203.684,174.916C203.916,174.916,204.031,175.090,204.031,175.437C204.031,175.784,203.916,175.958,203.684,175.958C202.585,175.958,201.313,175.929,199.867,175.871C198.421,175.813,196.889,175.784,195.269,175.784C193.650,175.784,192.117,175.813,190.671,175.871C189.225,175.929,187.953,175.958,186.854,175.958ZM164.211,175.958C164.038,175.958,163.951,175.784,163.951,175.437C163.951,175.090,164.038,174.916,164.211,174.916C166.178,174.916,167.496,174.511,168.167,173.700C168.827,172.890,169.156,171.298,169.156,168.924L169.156,155.985C169.156,149.617,166.872,146.433,162.303,146.433C160.452,146.433,158.613,146.954,156.785,147.996C154.969,149.038,153.454,150.456,152.239,152.251L151.806,151.209C153.945,148.083,156.247,145.680,158.711,144.001C161.163,142.322,163.778,141.483,166.554,141.483C169.619,141.483,171.979,142.322,173.633,144.001C175.275,145.680,176.097,148.170,176.097,151.469L176.097,168.924C176.097,171.298,176.444,172.890,177.138,173.700C177.832,174.511,179.162,174.916,181.128,174.916C181.302,174.916,181.389,175.090,181.389,175.437C181.389,175.784,181.302,175.958,181.128,175.958C179.972,175.958,178.670,175.929,177.224,175.871C175.779,175.813,174.246,175.784,172.626,175.784C171.065,175.784,169.544,175.813,168.063,175.871C166.594,175.929,165.310,175.958,164.211,175.958ZM141.916,175.958C141.742,175.958,141.655,175.784,141.655,175.437C141.655,175.090,141.742,174.916,141.916,174.916C143.882,174.916,145.183,174.511,145.819,173.700C146.456,172.890,146.774,171.298,146.774,168.924L146.774,152.338C146.774,150.485,146.571,149.125,146.166,148.256C145.762,147.388,145.039,146.954,143.998,146.954C143.477,146.954,142.841,147.070,142.089,147.301C141.337,147.533,140.527,147.851,139.660,148.256C139.429,148.314,139.244,148.187,139.105,147.874C138.954,147.550,138.966,147.359,139.139,147.301L150.504,141.744C150.793,141.628,150.996,141.570,151.111,141.570C151.690,141.570,152.280,142.236,152.881,143.567C153.494,144.899,153.801,146.838,153.801,149.385L153.801,168.924C153.801,171.298,154.131,172.890,154.790,173.700C155.461,174.511,156.779,174.916,158.746,174.916C158.919,174.916,159.006,175.090,159.006,175.437C159.006,175.784,158.919,175.958,158.746,175.958C157.647,175.958,156.375,175.929,154.929,175.871C153.483,175.813,151.950,175.784,150.331,175.784C148.769,175.784,147.254,175.813,145.785,175.871C144.304,175.929,143.014,175.958,141.916,175.958ZZM225.373,177.000C221.671,177.000,218.548,176.218,216.003,174.655C213.459,173.092,211.521,171.026,210.191,168.455C208.861,165.873,208.196,163.135,208.196,160.240C208.196,156.825,209.052,153.716,210.763,150.914C212.464,148.100,214.777,145.854,217.704,144.175C220.619,142.496,223.927,141.657,227.628,141.657C231.041,141.657,233.672,142.427,235.523,143.967C237.374,145.495,238.299,147.591,238.299,150.254C238.299,150.891,238.241,151.441,238.126,151.904C238.010,152.367,237.750,152.598,237.345,152.598L230.144,152.598C230.318,149.820,229.942,147.591,229.017,145.912C228.091,144.233,226.587,143.393,224.505,143.393C221.903,143.393,219.821,144.598,218.259,147.006C216.697,149.403,215.917,152.627,215.917,156.680C215.917,159.980,216.455,162.863,217.530,165.329C218.594,167.784,220.127,169.706,222.128,171.095C224.118,172.484,226.501,173.179,229.277,173.179C230.723,173.179,232.226,172.965,233.788,172.536C235.350,172.097,236.795,171.442,238.126,170.574C238.241,170.458,238.403,170.516,238.611,170.748C238.808,170.979,238.849,171.182,238.733,171.355C236.651,173.382,234.511,174.829,232.313,175.697C230.115,176.566,227.802,177.000,225.373,177.000ZM213.401,152.772L213.314,151.296L232.573,150.862L232.573,152.598L213.401,152.772ZZM268.143,175.958C267.969,175.958,267.882,175.784,267.882,175.437C267.882,175.090,267.969,174.916,268.143,174.916C270.109,174.916,271.410,174.511,272.046,173.700C272.683,172.890,273.001,171.298,273.001,168.924L273.001,155.898C273.001,152.656,272.411,150.271,271.231,148.743C270.040,147.203,268.171,146.433,265.627,146.433C263.776,146.433,261.885,146.942,259.953,147.961C258.010,148.969,256.402,150.370,255.129,152.164L254.696,151.122C256.951,148.054,259.340,145.669,261.862,143.967C264.372,142.253,267.073,141.396,269.964,141.396C273.203,141.396,275.690,142.369,277.425,144.314C279.160,146.248,280.028,148.864,280.028,152.164L280.028,168.924C280.028,171.298,280.363,172.890,281.034,173.700C281.693,174.511,283.006,174.916,284.973,174.916C285.146,174.916,285.233,175.090,285.233,175.437C285.233,175.784,285.146,175.958,284.973,175.958C283.874,175.958,282.602,175.929,281.156,175.871C279.710,175.813,278.177,175.784,276.558,175.784C274.996,175.784,273.481,175.813,272.012,175.871C270.531,175.929,269.241,175.958,268.143,175.958ZM244.806,175.958C244.632,175.958,244.545,175.784,244.545,175.437C244.545,175.090,244.632,174.916,244.806,174.916C246.772,174.916,248.073,174.511,248.710,173.700C249.346,172.890,249.664,171.298,249.664,168.924L249.664,152.338C249.664,150.485,249.462,149.125,249.057,148.256C248.652,147.388,247.929,146.954,246.888,146.954C246.367,146.954,245.731,147.070,244.979,147.301C244.227,147.533,243.418,147.851,242.550,148.256C242.319,148.314,242.134,148.187,241.995,147.874C241.845,147.550,241.856,147.359,242.030,147.301L253.394,141.744C253.684,141.628,253.886,141.570,254.002,141.570C254.580,141.570,255.176,142.236,255.789,143.567C256.390,144.899,256.691,146.838,256.691,149.385L256.691,168.924C256.691,171.298,257.026,172.890,257.697,173.700C258.357,174.511,259.670,174.916,261.636,174.916C261.809,174.916,261.896,175.090,261.896,175.437C261.896,175.784,261.809,175.958,261.636,175.958C260.537,175.958,259.265,175.929,257.819,175.871C256.373,175.813,254.840,175.784,253.221,175.784C251.659,175.784,250.144,175.813,248.675,175.871C247.194,175.929,245.905,175.958,244.806,175.958ZZM302.671,177.000C301.283,177.000,299.912,176.768,298.558,176.305C297.194,175.842,296.066,175.061,295.175,173.961C294.273,172.861,293.822,171.298,293.822,169.271L293.822,149.646C293.822,148.372,293.694,147.388,293.440,146.693C293.174,145.999,292.723,145.524,292.087,145.269C291.450,145.003,290.554,144.870,289.397,144.870C289.166,144.870,289.050,144.638,289.050,144.175C289.050,143.712,289.166,143.480,289.397,143.480C292.116,143.365,294.331,142.716,296.043,141.535C297.743,140.343,298.940,138.646,299.634,136.446C299.692,136.215,299.923,136.099,300.328,136.099C300.733,136.099,300.936,136.215,300.936,136.446L300.936,166.406C300.936,168.779,301.531,170.487,302.723,171.529C303.903,172.571,305.447,173.092,307.355,173.092C308.743,173.092,310.033,172.820,311.225,172.276C312.404,171.720,313.399,171.124,314.209,170.487C314.382,170.371,314.585,170.447,314.816,170.713C315.047,170.968,315.047,171.182,314.816,171.355C312.676,173.324,310.669,174.760,308.795,175.663C306.910,176.554,304.868,177.000,302.671,177.000ZM312.127,146.780C309.813,146.259,307.575,145.900,305.412,145.703C303.237,145.495,300.907,145.391,298.420,145.391L298.420,143.307C300.791,143.307,303.093,143.220,305.325,143.046C307.546,142.872,309.929,142.670,312.474,142.438C312.589,142.438,312.722,142.641,312.873,143.046C313.012,143.451,313.081,143.943,313.081,144.522C313.081,145.043,312.983,145.564,312.786,146.085C312.578,146.607,312.358,146.838,312.127,146.780ZZM343.358,176.479C343.127,176.595,342.867,176.653,342.577,176.653C341.652,176.653,340.727,175.987,339.801,174.655C338.876,173.324,338.413,171.384,338.413,168.837L338.413,153.814C338.413,151.383,338.222,149.414,337.841,147.909C337.470,146.404,336.938,145.304,336.244,144.609C335.550,143.915,334.654,143.567,333.555,143.567C332.514,143.567,331.606,143.845,330.831,144.401C330.044,144.945,329.437,145.709,329.009,146.693C328.570,147.678,328.292,148.922,328.176,150.427C328.061,151.817,327.644,152.888,326.927,153.640C326.198,154.393,325.140,154.769,323.752,154.769C322.479,154.769,321.537,154.480,320.924,153.901C320.322,153.322,320.021,152.540,320.021,151.556C320.021,150.341,320.600,149.154,321.756,147.996C322.913,146.838,324.359,145.784,326.094,144.835C327.829,143.874,329.651,143.104,331.560,142.525C333.468,141.946,335.203,141.657,336.765,141.657C339.194,141.657,341.247,142.427,342.924,143.967C344.602,145.495,345.440,147.909,345.440,151.209L345.440,166.579C345.440,168.374,345.729,169.735,346.308,170.661C346.886,171.587,347.725,172.050,348.824,172.050C349.749,172.050,350.790,171.790,351.947,171.269C352.236,171.153,352.438,171.257,352.554,171.581C352.670,171.894,352.583,172.108,352.294,172.224L343.358,176.479ZM325.574,176.566C323.781,176.566,322.364,176.074,321.323,175.090C320.282,174.105,319.761,172.803,319.761,171.182C319.761,169.271,320.501,167.853,321.982,166.927C323.451,166.000,325.776,165.016,328.957,163.974L339.281,160.501L339.541,161.716L332.167,164.408C330.721,164.987,329.680,165.613,329.044,166.284C328.408,166.944,328.090,167.766,328.090,168.750C328.090,169.966,328.437,170.921,329.131,171.616C329.825,172.311,330.692,172.658,331.733,172.658C332.254,172.658,332.873,172.571,333.590,172.398C334.318,172.224,335.088,171.934,335.897,171.529L341.536,168.577L341.710,169.879L334.162,173.961C332.659,174.771,331.166,175.408,329.686,175.871C328.217,176.334,326.846,176.566,325.574,176.566ZZM355.504,175.958C355.330,175.958,355.243,175.784,355.243,175.437C355.243,175.090,355.330,174.916,355.504,174.916C357.412,174.916,358.714,174.511,359.408,173.700C360.102,172.890,360.449,171.298,360.449,168.924L360.449,124.550C360.449,122.523,360.275,121.064,359.928,120.173C359.581,119.270,358.916,118.818,357.933,118.818C357.123,118.818,355.938,119.166,354.376,119.860C354.202,119.918,354.029,119.773,353.855,119.426C353.682,119.079,353.653,118.876,353.769,118.818L366.001,113.087C366.117,113.029,366.232,113.000,366.348,113.000C366.579,113.000,366.840,113.116,367.129,113.347C367.418,113.579,367.563,113.782,367.563,113.955L367.563,168.924C367.563,171.298,367.898,172.890,368.569,173.700C369.228,174.511,370.541,174.916,372.508,174.916C372.681,174.916,372.768,175.090,372.768,175.437C372.768,175.784,372.681,175.958,372.508,175.958C371.409,175.958,370.125,175.929,368.656,175.871C367.175,175.813,365.625,175.784,364.006,175.784C362.386,175.784,360.842,175.813,359.373,175.871C357.892,175.929,356.603,175.958,355.504,175.958ZZM379.101,175.958C378.927,175.958,378.841,175.784,378.841,175.437C378.841,175.090,378.927,174.916,379.101,174.916C381.067,174.916,382.380,174.511,383.039,173.700C383.710,172.890,384.046,171.298,384.046,168.924L384.046,153.119C384.046,151.151,383.843,149.721,383.439,148.830C383.034,147.926,382.340,147.475,381.356,147.475C380.894,147.475,380.373,147.562,379.795,147.735C379.216,147.909,378.580,148.170,377.886,148.517C377.655,148.575,377.470,148.430,377.331,148.083C377.181,147.735,377.192,147.533,377.366,147.475L389.858,141.657C389.974,141.599,390.061,141.570,390.119,141.570C390.350,141.570,390.593,141.703,390.847,141.969C391.113,142.224,391.246,142.438,391.246,142.612C391.246,143.249,391.217,144.407,391.160,146.085C391.102,147.764,391.073,150.080,391.073,153.033L391.073,168.924C391.073,171.298,391.408,172.890,392.079,173.700C392.739,174.511,394.051,174.916,396.018,174.916C396.191,174.916,396.278,175.090,396.278,175.437C396.278,175.784,396.191,175.958,396.018,175.958C394.861,175.958,393.560,175.929,392.114,175.871C390.668,175.813,389.135,175.784,387.516,175.784C385.954,175.784,384.439,175.813,382.970,175.871C381.489,175.929,380.200,175.958,379.101,175.958ZM387.082,132.452C385.578,132.452,384.410,132.047,383.577,131.236C382.733,130.426,382.311,129.268,382.311,127.763C382.311,126.373,382.733,125.273,383.577,124.463C384.410,123.652,385.578,123.247,387.082,123.247C388.528,123.247,389.639,123.652,390.414,124.463C391.200,125.273,391.593,126.373,391.593,127.763C391.593,130.889,390.090,132.452,387.082,132.452ZZM408.077,146.954C408.077,148.285,408.424,149.443,409.118,150.427C409.812,151.412,410.708,152.297,411.807,153.085C412.906,153.860,414.092,154.596,415.364,155.290C416.810,156.101,418.215,156.940,419.580,157.809C420.934,158.677,422.073,159.736,422.998,160.987C423.924,162.226,424.386,163.829,424.386,165.798C424.386,167.650,423.912,169.433,422.964,171.147C422.004,172.849,420.587,174.239,418.713,175.315C416.827,176.381,414.468,176.913,411.634,176.913C410.188,176.913,408.771,176.739,407.383,176.392C405.995,176.045,404.491,175.408,402.871,174.482C402.756,174.366,402.640,174.221,402.524,174.047C402.409,173.874,402.351,173.671,402.351,173.440L402.177,165.450C402.177,165.277,402.339,165.178,402.663,165.155C402.976,165.120,403.161,165.190,403.218,165.364C403.855,167.216,404.740,168.895,405.873,170.400C406.995,171.905,408.267,173.081,409.690,173.926C411.101,174.760,412.559,175.176,414.063,175.176C415.509,175.176,416.654,174.789,417.498,174.013C418.331,173.225,418.718,172.021,418.661,170.400C418.661,168.779,418.285,167.436,417.533,166.371C416.781,165.294,415.844,164.379,414.722,163.627C413.588,162.874,412.414,162.180,411.200,161.543C409.812,160.790,408.470,160.026,407.174,159.250C405.867,158.463,404.780,157.450,403.912,156.211C403.045,154.960,402.611,153.322,402.611,151.296C402.611,148.922,403.207,147.029,404.398,145.617C405.578,144.192,407.122,143.150,409.031,142.490C410.940,141.819,412.906,141.483,414.930,141.483C416.145,141.483,417.290,141.570,418.366,141.744C419.430,141.917,420.598,142.265,421.871,142.786C422.391,142.959,422.651,143.278,422.651,143.741C422.651,144.841,422.622,145.970,422.565,147.128C422.507,148.285,422.478,149.588,422.478,151.035C422.478,151.151,422.304,151.209,421.957,151.209C421.610,151.209,421.437,151.151,421.437,151.035C421.437,149.877,420.974,148.691,420.049,147.475C419.123,146.259,417.955,145.234,416.544,144.401C415.121,143.556,413.629,143.133,412.067,143.133C411.026,143.133,410.101,143.393,409.291,143.915C408.481,144.436,408.077,145.449,408.077,146.954ZZ" style="fill: rgb(13, 13, 13);"/></g></g><g id="shape-af065cad-1361-80a4-8006-9d975497b837"><g class="fills" id="fills-af065cad-1361-80a4-8006-9d975497b837"><path d="M177.423,106.981L173.946,127.430L168.457,127.430L171.812,107.804C171.974,106.918,172.056,105.989,172.056,105.019C172.056,102.444,171.374,100.482,170.012,99.131C168.650,97.780,166.749,97.105,164.310,97.105C161.382,97.105,158.892,98.055,156.838,99.954C154.785,101.853,153.454,104.618,152.844,108.247L152.844,108.121L149.550,127.430L144.000,127.430L149.916,92.737L155.466,92.737L154.612,97.738C155.995,95.923,157.723,94.530,159.796,93.560C161.870,92.589,164.045,92.104,166.322,92.104C169.779,92.104,172.543,93.064,174.617,94.984C176.691,96.905,177.728,99.701,177.728,103.373C177.728,104.723,177.626,105.926,177.423,106.981ZZM276.471,92.737L282.021,92.737L276.105,127.430L270.555,127.430L271.409,122.365C270.067,124.138,268.359,125.510,266.286,126.481C264.212,127.451,262.057,127.937,259.821,127.937C256.324,127.937,253.528,126.955,251.434,124.993C249.340,123.030,248.293,120.213,248.293,116.541C248.293,115.612,248.395,114.452,248.598,113.059L252.075,92.737L257.564,92.737L254.271,112.299C254.108,113.186,254.027,114.114,254.027,115.085C254.027,117.659,254.708,119.612,256.070,120.941C257.432,122.271,259.333,122.935,261.772,122.935C264.700,122.935,267.190,121.986,269.244,120.086C271.297,118.187,272.608,115.423,273.178,111.793L273.178,111.983L276.471,92.737ZZM214.078,99.068L215.176,92.737L220.787,92.737L214.871,127.430L209.260,127.430L210.418,120.973C208.955,122.999,207.023,124.676,204.624,126.006C202.225,127.335,199.583,128.000,196.696,128.000C194.093,128.000,191.796,127.420,189.804,126.259C187.811,125.098,186.266,123.442,185.168,121.289C184.071,119.137,183.522,116.647,183.522,113.819C183.522,112.553,183.644,111.265,183.888,109.957C184.498,106.412,185.728,103.299,187.578,100.619C189.428,97.939,191.684,95.860,194.348,94.383C197.011,92.906,199.847,92.167,202.856,92.167C205.783,92.167,208.202,92.821,210.114,94.129C212.025,95.438,213.346,97.084,214.078,99.068ZZM339.291,99.068L340.389,92.737L346.000,92.737L340.084,127.430L334.473,127.430L335.632,120.973C334.168,122.999,332.237,124.676,329.838,126.006C327.439,127.335,324.796,128.000,321.909,128.000C319.307,128.000,317.009,127.420,315.017,126.259C313.025,125.098,311.479,123.442,310.382,121.289C309.284,119.137,308.735,116.647,308.735,113.819C308.735,112.553,308.857,111.265,309.101,109.957C309.711,106.412,310.941,103.299,312.791,100.619C314.641,97.939,316.897,95.860,319.561,94.383C322.224,92.906,325.060,92.167,328.069,92.167C330.996,92.167,333.416,92.821,335.327,94.129C337.238,95.438,338.559,97.084,339.291,99.068ZZM236.156,97.485L232.680,117.934C232.558,118.567,232.497,119.116,232.497,119.580C232.497,120.635,232.812,121.395,233.442,121.859C234.073,122.323,235.099,122.555,236.522,122.555L240.609,122.555L239.755,127.430L234.754,127.430C232.111,127.430,230.129,126.903,228.807,125.847C227.486,124.792,226.825,123.062,226.825,120.656C226.825,119.728,226.906,118.820,227.069,117.934L230.545,97.485L226.276,97.485L227.069,92.737L231.399,92.737L232.863,84.000L238.474,84.000L237.010,92.737L245.671,92.737L244.878,97.485L236.156,97.485ZZM307.881,92.104L306.844,98.055L305.380,98.055C302.494,98.055,300.084,98.857,298.153,100.460C296.222,102.064,294.931,104.765,294.280,108.564L291.048,127.430L285.498,127.430L291.414,92.737L296.964,92.737L295.866,99.321C297.208,97.042,298.895,95.269,300.928,94.003C302.961,92.737,305.279,92.104,307.881,92.104ZZM212.248,110.020C212.411,109.134,212.492,108.184,212.492,107.171C212.492,104.090,211.608,101.653,209.839,99.859C208.070,98.065,205.824,97.168,203.100,97.168C201.026,97.168,199.044,97.675,197.153,98.688C195.262,99.701,193.646,101.178,192.304,103.119C190.963,105.061,190.068,107.340,189.621,109.957C189.458,110.843,189.377,111.814,189.377,112.869C189.377,115.992,190.251,118.451,191.999,120.245C193.748,122.038,195.984,122.935,198.708,122.935C200.782,122.935,202.764,122.418,204.655,121.384C206.546,120.350,208.172,118.852,209.534,116.889C210.896,114.927,211.801,112.637,212.248,110.020ZZM337.461,110.020C337.624,109.134,337.705,108.184,337.705,107.171C337.705,104.090,336.821,101.653,335.052,99.859C333.284,98.065,331.037,97.168,328.313,97.168C326.239,97.168,324.257,97.675,322.366,98.688C320.476,99.701,318.859,101.178,317.518,103.119C316.176,105.061,315.281,107.340,314.834,109.957C314.671,110.843,314.590,111.814,314.590,112.869C314.590,115.992,315.464,118.451,317.213,120.245C318.961,122.038,321.197,122.935,323.921,122.935C325.995,122.935,327.977,122.418,329.868,121.384C331.759,120.350,333.385,118.852,334.747,116.889C336.109,114.927,337.014,112.637,337.461,110.020ZZ" fill-rule="evenodd" font-size="12" style="fill: rgb(0, 0, 0);"/></g><g fill-rule="evenodd" font-size="12" id="strokes-3453ec0f-ac7b-8014-8006-9ed30e518a97-af065cad-1361-80a4-8006-9d975497b837" class="strokes"><g class="inner-stroke-shape"><defs><clipPath id="inner-stroke-render-7-af065cad-1361-80a4-8006-9d975497b837-0"><use href="#stroke-shape-render-7-af065cad-1361-80a4-8006-9d975497b837-0"/></clipPath><path d="M177.423,106.981L173.946,127.430L168.457,127.430L171.812,107.804C171.974,106.918,172.056,105.989,172.056,105.019C172.056,102.444,171.374,100.482,170.012,99.131C168.650,97.780,166.749,97.105,164.310,97.105C161.382,97.105,158.892,98.055,156.838,99.954C154.785,101.853,153.454,104.618,152.844,108.247L152.844,108.121L149.550,127.430L144.000,127.430L149.916,92.737L155.466,92.737L154.612,97.738C155.995,95.923,157.723,94.530,159.796,93.560C161.870,92.589,164.045,92.104,166.322,92.104C169.779,92.104,172.543,93.064,174.617,94.984C176.691,96.905,177.728,99.701,177.728,103.373C177.728,104.723,177.626,105.926,177.423,106.981ZZM276.471,92.737L282.021,92.737L276.105,127.430L270.555,127.430L271.409,122.365C270.067,124.138,268.359,125.510,266.286,126.481C264.212,127.451,262.057,127.937,259.821,127.937C256.324,127.937,253.528,126.955,251.434,124.993C249.340,123.030,248.293,120.213,248.293,116.541C248.293,115.612,248.395,114.452,248.598,113.059L252.075,92.737L257.564,92.737L254.271,112.299C254.108,113.186,254.027,114.114,254.027,115.085C254.027,117.659,254.708,119.612,256.070,120.941C257.432,122.271,259.333,122.935,261.772,122.935C264.700,122.935,267.190,121.986,269.244,120.086C271.297,118.187,272.608,115.423,273.178,111.793L273.178,111.983L276.471,92.737ZZM214.078,99.068L215.176,92.737L220.787,92.737L214.871,127.430L209.260,127.430L210.418,120.973C208.955,122.999,207.023,124.676,204.624,126.006C202.225,127.335,199.583,128.000,196.696,128.000C194.093,128.000,191.796,127.420,189.804,126.259C187.811,125.098,186.266,123.442,185.168,121.289C184.071,119.137,183.522,116.647,183.522,113.819C183.522,112.553,183.644,111.265,183.888,109.957C184.498,106.412,185.728,103.299,187.578,100.619C189.428,97.939,191.684,95.860,194.348,94.383C197.011,92.906,199.847,92.167,202.856,92.167C205.783,92.167,208.202,92.821,210.114,94.129C212.025,95.438,213.346,97.084,214.078,99.068ZZM339.291,99.068L340.389,92.737L346.000,92.737L340.084,127.430L334.473,127.430L335.632,120.973C334.168,122.999,332.237,124.676,329.838,126.006C327.439,127.335,324.796,128.000,321.909,128.000C319.307,128.000,317.009,127.420,315.017,126.259C313.025,125.098,311.479,123.442,310.382,121.289C309.284,119.137,308.735,116.647,308.735,113.819C308.735,112.553,308.857,111.265,309.101,109.957C309.711,106.412,310.941,103.299,312.791,100.619C314.641,97.939,316.897,95.860,319.561,94.383C322.224,92.906,325.060,92.167,328.069,92.167C330.996,92.167,333.416,92.821,335.327,94.129C337.238,95.438,338.559,97.084,339.291,99.068ZZM236.156,97.485L232.680,117.934C232.558,118.567,232.497,119.116,232.497,119.580C232.497,120.635,232.812,121.395,233.442,121.859C234.073,122.323,235.099,122.555,236.522,122.555L240.609,122.555L239.755,127.430L234.754,127.430C232.111,127.430,230.129,126.903,228.807,125.847C227.486,124.792,226.825,123.062,226.825,120.656C226.825,119.728,226.906,118.820,227.069,117.934L230.545,97.485L226.276,97.485L227.069,92.737L231.399,92.737L232.863,84.000L238.474,84.000L237.010,92.737L245.671,92.737L244.878,97.485L236.156,97.485ZZM307.881,92.104L306.844,98.055L305.380,98.055C302.494,98.055,300.084,98.857,298.153,100.460C296.222,102.064,294.931,104.765,294.280,108.564L291.048,127.430L285.498,127.430L291.414,92.737L296.964,92.737L295.866,99.321C297.208,97.042,298.895,95.269,300.928,94.003C302.961,92.737,305.279,92.104,307.881,92.104ZZM212.248,110.020C212.411,109.134,212.492,108.184,212.492,107.171C212.492,104.090,211.608,101.653,209.839,99.859C208.070,98.065,205.824,97.168,203.100,97.168C201.026,97.168,199.044,97.675,197.153,98.688C195.262,99.701,193.646,101.178,192.304,103.119C190.963,105.061,190.068,107.340,189.621,109.957C189.458,110.843,189.377,111.814,189.377,112.869C189.377,115.992,190.251,118.451,191.999,120.245C193.748,122.038,195.984,122.935,198.708,122.935C200.782,122.935,202.764,122.418,204.655,121.384C206.546,120.350,208.172,118.852,209.534,116.889C210.896,114.927,211.801,112.637,212.248,110.020ZZM337.461,110.020C337.624,109.134,337.705,108.184,337.705,107.171C337.705,104.090,336.821,101.653,335.052,99.859C333.284,98.065,331.037,97.168,328.313,97.168C326.239,97.168,324.257,97.675,322.366,98.688C320.476,99.701,318.859,101.178,317.518,103.119C316.176,105.061,315.281,107.340,314.834,109.957C314.671,110.843,314.590,111.814,314.590,112.869C314.590,115.992,315.464,118.451,317.213,120.245C318.961,122.038,321.197,122.935,323.921,122.935C325.995,122.935,327.977,122.418,329.868,121.384C331.759,120.350,333.385,118.852,334.747,116.889C336.109,114.927,337.014,112.637,337.461,110.020ZZ" id="stroke-shape-render-7-af065cad-1361-80a4-8006-9d975497b837-0" style="fill: none; stroke-width: 1.89; stroke: rgb(13, 13, 13); stroke-opacity: 1;"/></defs><use href="#stroke-shape-render-7-af065cad-1361-80a4-8006-9d975497b837-0" clip-path="url('#inner-stroke-render-7-af065cad-1361-80a4-8006-9d975497b837-0')"/></g></g></g></g></g></g></g></g></svg>