<svg width="470" xmlns="http://www.w3.org/2000/svg" height="245" id="screenshot-acd58fc1-87d0-8059-8006-9485c631182e" viewBox="0 0 470 245" xmlns:xlink="http://www.w3.org/1999/xlink" fill="none" version="1.1"><g id="shape-acd58fc1-87d0-8059-8006-9485c631182e"><defs><clipPath id="frame-clip-acd58fc1-87d0-8059-8006-9485c631182e-render-1" class="frame-clip frame-clip-def"><rect rx="0" ry="0" x="0" y="0" width="470" height="245" transform="matrix(1.000000, 0.000000, 0.000000, 1.000000, 0.000000, 0.000000)"/></clipPath></defs><g><g><g clip-path="url(#frame-clip-acd58fc1-87d0-8059-8006-9485c631182e-render-1)" fill="none"><g class="fills" id="fills-acd58fc1-87d0-8059-8006-9485c631182e"><rect width="470" height="245" class="frame-background" x="0" transform="matrix(1.000000, 0.000000, 0.000000, 1.000000, 0.000000, 0.000000)" style="fill: rgb(255, 255, 255); fill-opacity: 0;" ry="0" rx="0" y="0"/></g><g class="frame-children"><g id="shape-acd58fc1-87d0-8059-8006-9485dce9cbcb"><g class="fills" id="fills-acd58fc1-87d0-8059-8006-9485dce9cbcb"><ellipse cx="166" cy="107.5" rx="92" ry="87.5" transform="matrix(1.000000, 0.000000, 0.000000, 1.000000, 0.000000, 0.000000)" style="fill: rgb(7, 100, 81); fill-opacity: 0.3;"/></g></g><g id="shape-acd58fc1-87d0-8059-8006-9485dce9cbcc"><g class="fills" id="fills-acd58fc1-87d0-8059-8006-9485dce9cbcc"><ellipse cx="76" cy="130.5" rx="28" ry="25.5" transform="matrix(1.000000, 0.000000, 0.000000, 1.000000, 0.000000, 0.000000)" style="fill: rgb(98, 8, 8); fill-opacity: 0.4;"/></g></g><g id="shape-acd58fc1-87d0-8059-8006-9485dce9cbce"><g class="fills" id="fills-acd58fc1-87d0-8059-8006-9485dce9cbce"><ellipse cx="76.5" cy="60.5" rx="45.5" ry="40.5" transform="matrix(1.000000, 0.000000, 0.000000, 1.000000, 0.000000, 0.000000)" style="fill: rgb(40, 20, 71); fill-opacity: 0.5;"/></g></g><g id="shape-acd58fc1-87d0-8059-8006-9485dce9cbcf"><g class="fills" id="fills-acd58fc1-87d0-8059-8006-9485dce9cbcf"><ellipse cx="31.5" cy="112" rx="18.5" ry="17" transform="matrix(1.000000, 0.000000, 0.000000, 1.000000, 0.000000, 0.000000)" style="fill: rgb(182, 122, 4); fill-opacity: 0.4;"/></g></g><g id="shape-acd58fc1-87d0-8059-8006-9486dfcc5020"><g class="fills" id="fills-acd58fc1-87d0-8059-8006-9486dfcc5020"><path d="M412.282,212.031L412.040,200.884C412.040,200.642,412.262,200.501,412.705,200.460C413.148,200.420,413.410,200.521,413.491,200.763C414.378,203.348,415.608,205.690,417.180,207.791C418.752,209.891,420.526,211.526,422.501,212.698C424.476,213.869,426.512,214.454,428.608,214.454C430.624,214.454,432.216,213.909,433.385,212.819C434.554,211.728,435.099,210.052,435.018,207.791C435.018,205.529,434.494,203.651,433.446,202.157C432.398,200.662,431.088,199.390,429.515,198.340C427.943,197.290,426.311,196.321,424.617,195.432C422.682,194.382,420.808,193.312,418.994,192.221C417.180,191.131,415.668,189.717,414.459,187.981C413.249,186.244,412.645,183.962,412.645,181.135C412.645,177.823,413.471,175.178,415.124,173.199C416.777,171.220,418.933,169.766,421.594,168.837C424.255,167.908,426.996,167.444,429.818,167.444C431.511,167.444,433.103,167.565,434.595,167.807C436.086,168.050,437.719,168.534,439.493,169.261C440.218,169.504,440.581,169.948,440.581,170.594C440.581,172.129,440.541,173.704,440.460,175.319C440.380,176.935,440.339,178.752,440.339,180.772C440.339,180.933,440.097,181.014,439.614,181.014C439.130,181.014,438.888,180.933,438.888,180.772C438.888,179.156,438.243,177.500,436.953,175.804C435.663,174.108,434.030,172.674,432.055,171.503C430.080,170.332,428.004,169.746,425.827,169.746C424.376,169.746,423.086,170.109,421.957,170.836C420.828,171.563,420.264,172.977,420.264,175.077C420.264,176.935,420.747,178.550,421.715,179.923C422.682,181.297,423.932,182.528,425.464,183.619C426.996,184.709,428.649,185.739,430.422,186.708C432.438,187.839,434.393,189.011,436.288,190.222C438.183,191.434,439.775,192.908,441.065,194.645C442.355,196.381,443.000,198.623,443.000,201.369C443.000,203.954,442.335,206.438,441.005,208.820C439.674,211.203,437.699,213.142,435.079,214.636C432.458,216.130,429.173,216.878,425.222,216.878C423.206,216.878,421.231,216.635,419.296,216.151C417.361,215.666,415.265,214.777,413.007,213.485C412.846,213.324,412.685,213.122,412.524,212.879C412.362,212.637,412.282,212.354,412.282,212.031ZL412.282,212.031ZM265.100,182.952L255.062,182.952C255.304,179.075,254.780,175.966,253.490,173.623C252.200,171.281,250.104,170.109,247.201,170.109C243.573,170.109,240.671,171.785,238.494,175.138C236.317,178.490,235.228,182.993,235.228,188.647C235.228,193.251,235.974,197.270,237.466,200.703C238.957,204.136,241.094,206.821,243.876,208.760C246.657,210.698,249.983,211.668,253.853,211.668C255.869,211.668,257.965,211.365,260.142,210.759C262.319,210.153,264.334,209.244,266.189,208.033C266.350,207.871,266.572,207.952,266.854,208.275C267.136,208.598,267.196,208.881,267.035,209.123C264.133,211.950,261.150,213.970,258.086,215.181C255.022,216.393,251.797,216.999,248.411,216.999C243.251,216.999,238.897,215.908,235.349,213.727C231.802,211.547,229.101,208.659,227.247,205.064C225.392,201.470,224.465,197.653,224.465,193.615C224.465,188.849,225.654,184.507,228.033,180.590C230.411,176.672,233.636,173.542,237.708,171.200C241.779,168.857,246.395,167.686,251.555,167.686C256.312,167.686,259.980,168.756,262.560,170.897C265.140,173.037,266.430,175.966,266.430,179.681C266.430,180.570,266.350,181.337,266.189,181.983C266.027,182.629,265.665,182.952,265.100,182.952ZL265.100,182.952ZM314.806,205.731L314.806,187.557C314.806,183.033,313.979,179.701,312.326,177.561C310.674,175.420,308.073,174.350,304.526,174.350C301.946,174.350,299.305,175.057,296.605,176.470C293.904,177.884,293.774,177.496,292.000,180.000L291.395,178.546C294.540,174.265,295.758,173.280,299.265,170.897C302.772,168.514,306.542,167.323,310.573,167.323C315.088,167.323,318.555,168.676,320.974,171.382C323.392,174.088,324.602,177.743,324.602,182.347L324.602,205.731C324.602,209.043,325.065,211.264,325.992,212.395C326.920,213.526,328.754,214.091,331.495,214.091C331.737,214.091,331.858,214.333,331.858,214.818C331.858,215.303,331.737,215.545,331.495,215.545C329.963,215.545,328.190,215.504,326.174,215.424C324.158,215.343,322.022,215.303,319.764,215.303C317.587,215.303,315.471,215.343,313.415,215.424C311.359,215.504,309.565,215.545,308.033,215.545C307.791,215.545,307.670,215.303,307.670,214.818C307.670,214.333,307.791,214.091,308.033,214.091C310.774,214.091,312.589,213.526,313.475,212.395C314.362,211.264,314.806,209.043,314.806,205.731ZL314.806,205.731ZM170.043,205.731L170.043,187.678C170.043,178.793,166.858,174.350,160.489,174.350C157.909,174.350,155.349,175.077,152.809,176.531C150.270,177.985,150.193,177.496,148.500,180.000L147.895,178.546C150.878,174.184,152.043,173.300,155.470,170.958C158.896,168.615,162.545,167.444,166.415,167.444C170.688,167.444,173.973,168.615,176.271,170.958C178.569,173.300,179.718,176.773,179.718,181.377L179.718,205.731C179.718,209.043,180.202,211.264,181.169,212.395C182.137,213.526,183.991,214.091,186.732,214.091C186.974,214.091,187.095,214.333,187.095,214.818C187.095,215.303,186.974,215.545,186.732,215.545C185.120,215.545,183.306,215.504,181.290,215.424C179.274,215.343,177.138,215.303,174.880,215.303C172.704,215.303,170.587,215.343,168.531,215.424C166.475,215.504,164.681,215.545,163.149,215.545C162.908,215.545,162.787,215.303,162.787,214.818C162.787,214.333,162.908,214.091,163.149,214.091C165.891,214.091,167.725,213.526,168.652,212.395C169.579,211.264,170.043,209.043,170.043,205.731ZL170.043,205.731ZM201.608,205.731L201.608,187.678C201.608,178.793,198.423,174.350,192.054,174.350C189.393,174.350,186.813,175.077,184.314,176.531C181.814,177.985,180.975,178.532,179.500,181.000L178.895,179.546C181.878,175.184,183.608,173.300,187.035,170.958C190.461,168.615,194.110,167.444,197.980,167.444C202.172,167.444,205.437,168.655,207.776,171.079C210.114,173.502,211.283,177.258,211.283,182.347L211.283,205.731C211.283,209.043,211.746,211.264,212.674,212.395C213.601,213.526,215.435,214.091,218.176,214.091C218.499,214.091,218.660,214.333,218.660,214.818C218.660,215.303,218.499,215.545,218.176,215.545C216.644,215.545,214.871,215.504,212.855,215.424C210.839,215.343,208.703,215.303,206.445,215.303C204.188,215.303,202.051,215.343,200.036,215.424C198.020,215.504,196.246,215.545,194.714,215.545C194.472,215.545,194.351,215.303,194.351,214.818C194.351,214.333,194.472,214.091,194.714,214.091C197.375,214.091,199.189,213.526,200.156,212.395C201.124,211.264,201.608,209.043,201.608,205.731ZL201.608,205.731ZM343.831,206.215L343.831,178.833C343.831,177.056,343.649,175.683,343.287,174.714C342.924,173.744,342.299,173.078,341.412,172.714C340.525,172.351,339.275,172.169,337.663,172.169C337.340,172.169,337.179,171.846,337.179,171.200C337.179,170.554,337.340,170.231,337.663,170.231C341.452,170.069,344.536,169.160,346.915,167.504C349.293,165.849,350.966,163.486,351.934,160.417C352.014,160.093,352.337,159.932,352.901,159.932C353.466,159.932,353.748,160.093,353.748,160.417L353.748,202.217C353.748,205.529,354.574,207.912,356.227,209.366C357.880,210.820,360.037,211.547,362.697,211.547C364.632,211.547,366.426,211.163,368.079,210.396C369.732,209.628,371.123,208.800,372.251,207.912C372.493,207.750,372.775,207.851,373.098,208.215C373.420,208.578,373.420,208.881,373.098,209.123C370.115,211.870,367.313,213.869,364.693,215.121C362.072,216.373,359.230,216.999,356.167,216.999C354.231,216.999,352.317,216.676,350.422,216.029C348.527,215.383,346.955,214.293,345.705,212.758C344.456,211.223,343.831,209.043,343.831,206.215ZL343.831,206.215ZM138.841,205.731L138.841,182.589C138.841,180.004,138.559,178.106,137.994,176.894C137.430,175.683,136.422,175.077,134.971,175.077C134.245,175.077,133.358,175.239,132.310,175.562C131.262,175.885,130.133,176.329,128.924,176.894C128.601,176.975,128.339,176.793,128.138,176.349C127.936,175.905,127.956,175.642,128.198,175.562L144.041,167.807C144.444,167.646,144.727,167.565,144.888,167.565C145.694,167.565,146.520,168.494,147.367,170.352C148.214,172.210,148.637,174.915,148.637,178.470L148.637,205.731C148.637,209.043,149.100,211.264,150.028,212.395C150.955,213.526,152.789,214.091,155.530,214.091C155.772,214.091,155.893,214.333,155.893,214.818C155.893,215.303,155.772,215.545,155.530,215.545C153.998,215.545,152.225,215.504,150.209,215.424C148.193,215.343,146.057,215.303,143.799,215.303C141.622,215.303,139.506,215.343,137.450,215.424C135.394,215.504,133.600,215.545,132.068,215.545C131.826,215.545,131.706,215.303,131.706,214.818C131.706,214.333,131.826,214.091,132.068,214.091C134.810,214.091,136.624,213.526,137.511,212.395C138.397,211.264,138.841,209.043,138.841,205.731ZL138.841,205.731ZM282.273,205.731L282.273,182.589C282.273,180.004,281.991,178.106,281.427,176.894C280.862,175.683,279.855,175.077,278.403,175.077C277.678,175.077,276.791,175.239,275.743,175.562C274.695,175.885,273.566,176.329,272.356,176.894C272.034,176.975,271.772,176.793,271.570,176.349C271.369,175.905,271.389,175.642,271.631,175.562L287.474,167.807C287.877,167.646,288.159,167.565,288.320,167.565C289.127,167.565,289.953,168.494,290.800,170.352C291.646,172.210,292.069,174.915,292.069,178.470L292.069,205.731C292.069,209.043,292.533,211.264,293.460,212.395C294.387,213.526,296.222,214.091,298.963,214.091C299.205,214.091,299.326,214.333,299.326,214.818C299.326,215.303,299.205,215.545,298.963,215.545C297.431,215.545,295.657,215.504,293.642,215.424C291.626,215.343,289.489,215.303,287.232,215.303C285.055,215.303,282.939,215.343,280.883,215.424C278.827,215.504,277.033,215.545,275.501,215.545C275.259,215.545,275.138,215.303,275.138,214.818C275.138,214.333,275.259,214.091,275.501,214.091C278.242,214.091,280.056,213.526,280.943,212.395C281.830,211.264,282.273,209.043,282.273,205.731ZL282.273,205.731ZM386.764,205.731L386.764,183.679C386.764,180.933,386.482,178.934,385.917,177.682C385.353,176.430,384.385,175.804,383.015,175.804C382.370,175.804,381.644,175.925,380.838,176.167C380.032,176.410,379.145,176.773,378.177,177.258C377.855,177.339,377.593,177.137,377.391,176.652C377.190,176.167,377.210,175.885,377.452,175.804L394.867,167.686C395.028,167.605,395.149,167.565,395.229,167.565C395.552,167.565,395.895,167.747,396.257,168.110C396.620,168.474,396.802,168.777,396.802,169.019C396.802,169.907,396.761,171.523,396.681,173.865C396.600,176.208,396.560,179.439,396.560,183.558L396.560,205.731C396.560,209.043,397.023,211.264,397.951,212.395C398.878,213.526,400.712,214.091,403.453,214.091C403.695,214.091,403.816,214.333,403.816,214.818C403.816,215.303,403.695,215.545,403.453,215.545C401.841,215.545,400.027,215.504,398.011,215.424C395.995,215.343,393.859,215.303,391.601,215.303C389.424,215.303,387.308,215.343,385.252,215.424C383.196,215.504,381.402,215.545,379.870,215.545C379.628,215.545,379.508,215.303,379.508,214.818C379.508,214.333,379.628,214.091,379.870,214.091C382.612,214.091,384.446,213.526,385.373,212.395C386.300,211.264,386.764,209.043,386.764,205.731ZL386.764,205.731ZM255.449,182.952L235.500,183.000L236.000,181.000L255.449,180.529L255.449,182.952ZL255.449,182.952ZM353.241,172.896L353.241,169.988C356.546,169.988,356.751,169.867,359.855,169.625C362.959,169.382,366.285,169.100,369.832,168.777C369.994,168.777,370.175,169.059,370.377,169.625C370.578,170.190,370.679,170.877,370.679,171.684C370.679,172.411,370.538,173.138,370.256,173.865C369.974,174.592,369.671,174.915,369.349,174.835C366.124,174.108,363.000,173.603,359.976,173.320C356.953,173.037,356.707,172.896,353.241,172.896ZL353.241,172.896ZM390.997,154.843C388.900,154.843,387.268,154.278,386.099,153.147C384.930,152.016,384.345,150.401,384.345,148.300C384.345,146.362,384.930,144.827,386.099,143.696C387.268,142.565,388.900,142.000,390.997,142.000C393.012,142.000,394.564,142.565,395.653,143.696C396.741,144.827,397.285,146.362,397.285,148.300C397.285,152.662,395.189,154.843,390.997,154.843ZL390.997,154.843Z" fill-rule="evenodd" font-size="12" style="fill: rgb(0, 0, 0);"/></g><g fill-rule="evenodd" font-size="12" id="strokes-94a87c15-c868-802b-8006-9488785e39a2-acd58fc1-87d0-8059-8006-9486dfcc5020" class="strokes"><g class="stroke-shape"><path d="M412.282,212.031L412.040,200.884C412.040,200.642,412.262,200.501,412.705,200.460C413.148,200.420,413.410,200.521,413.491,200.763C414.378,203.348,415.608,205.690,417.180,207.791C418.752,209.891,420.526,211.526,422.501,212.698C424.476,213.869,426.512,214.454,428.608,214.454C430.624,214.454,432.216,213.909,433.385,212.819C434.554,211.728,435.099,210.052,435.018,207.791C435.018,205.529,434.494,203.651,433.446,202.157C432.398,200.662,431.088,199.390,429.515,198.340C427.943,197.290,426.311,196.321,424.617,195.432C422.682,194.382,420.808,193.312,418.994,192.221C417.180,191.131,415.668,189.717,414.459,187.981C413.249,186.244,412.645,183.962,412.645,181.135C412.645,177.823,413.471,175.178,415.124,173.199C416.777,171.220,418.933,169.766,421.594,168.837C424.255,167.908,426.996,167.444,429.818,167.444C431.511,167.444,433.103,167.565,434.595,167.807C436.086,168.050,437.719,168.534,439.493,169.261C440.218,169.504,440.581,169.948,440.581,170.594C440.581,172.129,440.541,173.704,440.460,175.319C440.380,176.935,440.339,178.752,440.339,180.772C440.339,180.933,440.097,181.014,439.614,181.014C439.130,181.014,438.888,180.933,438.888,180.772C438.888,179.156,438.243,177.500,436.953,175.804C435.663,174.108,434.030,172.674,432.055,171.503C430.080,170.332,428.004,169.746,425.827,169.746C424.376,169.746,423.086,170.109,421.957,170.836C420.828,171.563,420.264,172.977,420.264,175.077C420.264,176.935,420.747,178.550,421.715,179.923C422.682,181.297,423.932,182.528,425.464,183.619C426.996,184.709,428.649,185.739,430.422,186.708C432.438,187.839,434.393,189.011,436.288,190.222C438.183,191.434,439.775,192.908,441.065,194.645C442.355,196.381,443.000,198.623,443.000,201.369C443.000,203.954,442.335,206.438,441.005,208.820C439.674,211.203,437.699,213.142,435.079,214.636C432.458,216.130,429.173,216.878,425.222,216.878C423.206,216.878,421.231,216.635,419.296,216.151C417.361,215.666,415.265,214.777,413.007,213.485C412.846,213.324,412.685,213.122,412.524,212.879C412.362,212.637,412.282,212.354,412.282,212.031ZL412.282,212.031ZM265.100,182.952L255.062,182.952C255.304,179.075,254.780,175.966,253.490,173.623C252.200,171.281,250.104,170.109,247.201,170.109C243.573,170.109,240.671,171.785,238.494,175.138C236.317,178.490,235.228,182.993,235.228,188.647C235.228,193.251,235.974,197.270,237.466,200.703C238.957,204.136,241.094,206.821,243.876,208.760C246.657,210.698,249.983,211.668,253.853,211.668C255.869,211.668,257.965,211.365,260.142,210.759C262.319,210.153,264.334,209.244,266.189,208.033C266.350,207.871,266.572,207.952,266.854,208.275C267.136,208.598,267.196,208.881,267.035,209.123C264.133,211.950,261.150,213.970,258.086,215.181C255.022,216.393,251.797,216.999,248.411,216.999C243.251,216.999,238.897,215.908,235.349,213.727C231.802,211.547,229.101,208.659,227.247,205.064C225.392,201.470,224.465,197.653,224.465,193.615C224.465,188.849,225.654,184.507,228.033,180.590C230.411,176.672,233.636,173.542,237.708,171.200C241.779,168.857,246.395,167.686,251.555,167.686C256.312,167.686,259.980,168.756,262.560,170.897C265.140,173.037,266.430,175.966,266.430,179.681C266.430,180.570,266.350,181.337,266.189,181.983C266.027,182.629,265.665,182.952,265.100,182.952ZL265.100,182.952ZM314.806,205.731L314.806,187.557C314.806,183.033,313.979,179.701,312.326,177.561C310.674,175.420,308.073,174.350,304.526,174.350C301.946,174.350,299.305,175.057,296.605,176.470C293.904,177.884,293.774,177.496,292.000,180.000L291.395,178.546C294.540,174.265,295.758,173.280,299.265,170.897C302.772,168.514,306.542,167.323,310.573,167.323C315.088,167.323,318.555,168.676,320.974,171.382C323.392,174.088,324.602,177.743,324.602,182.347L324.602,205.731C324.602,209.043,325.065,211.264,325.992,212.395C326.920,213.526,328.754,214.091,331.495,214.091C331.737,214.091,331.858,214.333,331.858,214.818C331.858,215.303,331.737,215.545,331.495,215.545C329.963,215.545,328.190,215.504,326.174,215.424C324.158,215.343,322.022,215.303,319.764,215.303C317.587,215.303,315.471,215.343,313.415,215.424C311.359,215.504,309.565,215.545,308.033,215.545C307.791,215.545,307.670,215.303,307.670,214.818C307.670,214.333,307.791,214.091,308.033,214.091C310.774,214.091,312.589,213.526,313.475,212.395C314.362,211.264,314.806,209.043,314.806,205.731ZL314.806,205.731ZM170.043,205.731L170.043,187.678C170.043,178.793,166.858,174.350,160.489,174.350C157.909,174.350,155.349,175.077,152.809,176.531C150.270,177.985,150.193,177.496,148.500,180.000L147.895,178.546C150.878,174.184,152.043,173.300,155.470,170.958C158.896,168.615,162.545,167.444,166.415,167.444C170.688,167.444,173.973,168.615,176.271,170.958C178.569,173.300,179.718,176.773,179.718,181.377L179.718,205.731C179.718,209.043,180.202,211.264,181.169,212.395C182.137,213.526,183.991,214.091,186.732,214.091C186.974,214.091,187.095,214.333,187.095,214.818C187.095,215.303,186.974,215.545,186.732,215.545C185.120,215.545,183.306,215.504,181.290,215.424C179.274,215.343,177.138,215.303,174.880,215.303C172.704,215.303,170.587,215.343,168.531,215.424C166.475,215.504,164.681,215.545,163.149,215.545C162.908,215.545,162.787,215.303,162.787,214.818C162.787,214.333,162.908,214.091,163.149,214.091C165.891,214.091,167.725,213.526,168.652,212.395C169.579,211.264,170.043,209.043,170.043,205.731ZL170.043,205.731ZM201.608,205.731L201.608,187.678C201.608,178.793,198.423,174.350,192.054,174.350C189.393,174.350,186.813,175.077,184.314,176.531C181.814,177.985,180.975,178.532,179.500,181.000L178.895,179.546C181.878,175.184,183.608,173.300,187.035,170.958C190.461,168.615,194.110,167.444,197.980,167.444C202.172,167.444,205.437,168.655,207.776,171.079C210.114,173.502,211.283,177.258,211.283,182.347L211.283,205.731C211.283,209.043,211.746,211.264,212.674,212.395C213.601,213.526,215.435,214.091,218.176,214.091C218.499,214.091,218.660,214.333,218.660,214.818C218.660,215.303,218.499,215.545,218.176,215.545C216.644,215.545,214.871,215.504,212.855,215.424C210.839,215.343,208.703,215.303,206.445,215.303C204.188,215.303,202.051,215.343,200.036,215.424C198.020,215.504,196.246,215.545,194.714,215.545C194.472,215.545,194.351,215.303,194.351,214.818C194.351,214.333,194.472,214.091,194.714,214.091C197.375,214.091,199.189,213.526,200.156,212.395C201.124,211.264,201.608,209.043,201.608,205.731ZL201.608,205.731ZM343.831,206.215L343.831,178.833C343.831,177.056,343.649,175.683,343.287,174.714C342.924,173.744,342.299,173.078,341.412,172.714C340.525,172.351,339.275,172.169,337.663,172.169C337.340,172.169,337.179,171.846,337.179,171.200C337.179,170.554,337.340,170.231,337.663,170.231C341.452,170.069,344.536,169.160,346.915,167.504C349.293,165.849,350.966,163.486,351.934,160.417C352.014,160.093,352.337,159.932,352.901,159.932C353.466,159.932,353.748,160.093,353.748,160.417L353.748,202.217C353.748,205.529,354.574,207.912,356.227,209.366C357.880,210.820,360.037,211.547,362.697,211.547C364.632,211.547,366.426,211.163,368.079,210.396C369.732,209.628,371.123,208.800,372.251,207.912C372.493,207.750,372.775,207.851,373.098,208.215C373.420,208.578,373.420,208.881,373.098,209.123C370.115,211.870,367.313,213.869,364.693,215.121C362.072,216.373,359.230,216.999,356.167,216.999C354.231,216.999,352.317,216.676,350.422,216.029C348.527,215.383,346.955,214.293,345.705,212.758C344.456,211.223,343.831,209.043,343.831,206.215ZL343.831,206.215ZM138.841,205.731L138.841,182.589C138.841,180.004,138.559,178.106,137.994,176.894C137.430,175.683,136.422,175.077,134.971,175.077C134.245,175.077,133.358,175.239,132.310,175.562C131.262,175.885,130.133,176.329,128.924,176.894C128.601,176.975,128.339,176.793,128.138,176.349C127.936,175.905,127.956,175.642,128.198,175.562L144.041,167.807C144.444,167.646,144.727,167.565,144.888,167.565C145.694,167.565,146.520,168.494,147.367,170.352C148.214,172.210,148.637,174.915,148.637,178.470L148.637,205.731C148.637,209.043,149.100,211.264,150.028,212.395C150.955,213.526,152.789,214.091,155.530,214.091C155.772,214.091,155.893,214.333,155.893,214.818C155.893,215.303,155.772,215.545,155.530,215.545C153.998,215.545,152.225,215.504,150.209,215.424C148.193,215.343,146.057,215.303,143.799,215.303C141.622,215.303,139.506,215.343,137.450,215.424C135.394,215.504,133.600,215.545,132.068,215.545C131.826,215.545,131.706,215.303,131.706,214.818C131.706,214.333,131.826,214.091,132.068,214.091C134.810,214.091,136.624,213.526,137.511,212.395C138.397,211.264,138.841,209.043,138.841,205.731ZL138.841,205.731ZM282.273,205.731L282.273,182.589C282.273,180.004,281.991,178.106,281.427,176.894C280.862,175.683,279.855,175.077,278.403,175.077C277.678,175.077,276.791,175.239,275.743,175.562C274.695,175.885,273.566,176.329,272.356,176.894C272.034,176.975,271.772,176.793,271.570,176.349C271.369,175.905,271.389,175.642,271.631,175.562L287.474,167.807C287.877,167.646,288.159,167.565,288.320,167.565C289.127,167.565,289.953,168.494,290.800,170.352C291.646,172.210,292.069,174.915,292.069,178.470L292.069,205.731C292.069,209.043,292.533,211.264,293.460,212.395C294.387,213.526,296.222,214.091,298.963,214.091C299.205,214.091,299.326,214.333,299.326,214.818C299.326,215.303,299.205,215.545,298.963,215.545C297.431,215.545,295.657,215.504,293.642,215.424C291.626,215.343,289.489,215.303,287.232,215.303C285.055,215.303,282.939,215.343,280.883,215.424C278.827,215.504,277.033,215.545,275.501,215.545C275.259,215.545,275.138,215.303,275.138,214.818C275.138,214.333,275.259,214.091,275.501,214.091C278.242,214.091,280.056,213.526,280.943,212.395C281.830,211.264,282.273,209.043,282.273,205.731ZL282.273,205.731ZM386.764,205.731L386.764,183.679C386.764,180.933,386.482,178.934,385.917,177.682C385.353,176.430,384.385,175.804,383.015,175.804C382.370,175.804,381.644,175.925,380.838,176.167C380.032,176.410,379.145,176.773,378.177,177.258C377.855,177.339,377.593,177.137,377.391,176.652C377.190,176.167,377.210,175.885,377.452,175.804L394.867,167.686C395.028,167.605,395.149,167.565,395.229,167.565C395.552,167.565,395.895,167.747,396.257,168.110C396.620,168.474,396.802,168.777,396.802,169.019C396.802,169.907,396.761,171.523,396.681,173.865C396.600,176.208,396.560,179.439,396.560,183.558L396.560,205.731C396.560,209.043,397.023,211.264,397.951,212.395C398.878,213.526,400.712,214.091,403.453,214.091C403.695,214.091,403.816,214.333,403.816,214.818C403.816,215.303,403.695,215.545,403.453,215.545C401.841,215.545,400.027,215.504,398.011,215.424C395.995,215.343,393.859,215.303,391.601,215.303C389.424,215.303,387.308,215.343,385.252,215.424C383.196,215.504,381.402,215.545,379.870,215.545C379.628,215.545,379.508,215.303,379.508,214.818C379.508,214.333,379.628,214.091,379.870,214.091C382.612,214.091,384.446,213.526,385.373,212.395C386.300,211.264,386.764,209.043,386.764,205.731ZL386.764,205.731ZM255.449,182.952L235.500,183.000L236.000,181.000L255.449,180.529L255.449,182.952ZL255.449,182.952ZM353.241,172.896L353.241,169.988C356.546,169.988,356.751,169.867,359.855,169.625C362.959,169.382,366.285,169.100,369.832,168.777C369.994,168.777,370.175,169.059,370.377,169.625C370.578,170.190,370.679,170.877,370.679,171.684C370.679,172.411,370.538,173.138,370.256,173.865C369.974,174.592,369.671,174.915,369.349,174.835C366.124,174.108,363.000,173.603,359.976,173.320C356.953,173.037,356.707,172.896,353.241,172.896ZL353.241,172.896ZM390.997,154.843C388.900,154.843,387.268,154.278,386.099,153.147C384.930,152.016,384.345,150.401,384.345,148.300C384.345,146.362,384.930,144.827,386.099,143.696C387.268,142.565,388.900,142.000,390.997,142.000C393.012,142.000,394.564,142.565,395.653,143.696C396.741,144.827,397.285,146.362,397.285,148.300C397.285,152.662,395.189,154.843,390.997,154.843ZL390.997,154.843Z" style="fill: none; stroke-width: 0.945; stroke: rgb(0, 0, 0); stroke-opacity: 1;"/></g></g></g><g id="shape-acd58fc1-87d0-8059-8006-9486ba040d6e"><g class="fills" id="fills-acd58fc1-87d0-8059-8006-9486ba040d6e"><path d="M176.725,125.070L172.801,147.378L166.605,147.378L170.391,125.968C170.575,125.001,170.667,123.988,170.667,122.929C170.667,120.121,169.898,117.980,168.361,116.506C166.823,115.033,164.678,114.296,161.924,114.296C158.620,114.296,155.809,115.332,153.491,117.404C151.173,119.476,149.670,122.492,148.982,126.451L148.982,126.313L145.264,147.378L139.000,147.378L145.678,109.531L151.942,109.531L150.978,114.987C152.539,113.007,154.489,111.488,156.830,110.429C159.170,109.370,161.626,108.840,164.196,108.840C168.097,108.840,171.217,109.888,173.558,111.983C175.899,114.077,177.069,117.128,177.069,121.134C177.069,122.607,176.954,123.919,176.725,125.070ZZM288.522,109.531L294.786,109.531L288.109,147.378L281.844,147.378L282.808,141.853C281.293,143.786,279.366,145.283,277.025,146.342C274.685,147.401,272.252,147.930,269.728,147.930C265.781,147.930,262.626,146.860,260.263,144.719C257.899,142.578,256.717,139.504,256.717,135.499C256.717,134.486,256.832,133.220,257.062,131.700L260.986,109.531L267.181,109.531L263.464,130.871C263.280,131.838,263.188,132.851,263.188,133.910C263.188,136.719,263.957,138.848,265.495,140.299C267.032,141.749,269.178,142.474,271.931,142.474C275.236,142.474,278.046,141.438,280.364,139.366C282.682,137.294,284.162,134.279,284.804,130.319L284.804,130.526L288.522,109.531ZZM218.098,116.437L219.337,109.531L225.670,109.531L218.993,147.378L212.659,147.378L213.967,140.333C212.315,142.543,210.135,144.373,207.428,145.824C204.720,147.274,201.737,147.999,198.478,147.999C195.541,147.999,192.948,147.366,190.699,146.100C188.450,144.834,186.707,143.027,185.467,140.679C184.228,138.330,183.609,135.614,183.609,132.529C183.609,131.148,183.746,129.743,184.022,128.316C184.710,124.449,186.098,121.053,188.187,118.129C190.275,115.206,192.822,112.938,195.828,111.326C198.834,109.715,202.035,108.909,205.431,108.909C208.736,108.909,211.466,109.623,213.623,111.050C215.780,112.478,217.272,114.273,218.098,116.437ZZM359.428,116.437L360.667,109.531L367.000,109.531L360.322,147.378L353.989,147.378L355.297,140.333C353.645,142.543,351.465,144.373,348.757,145.824C346.050,147.274,343.066,147.999,339.808,147.999C336.871,147.999,334.278,147.366,332.029,146.100C329.780,144.834,328.036,143.027,326.797,140.679C325.558,138.330,324.938,135.614,324.938,132.529C324.938,131.148,325.076,129.743,325.351,128.316C326.040,124.449,327.428,121.053,329.516,118.129C331.604,115.206,334.152,112.938,337.158,111.326C340.164,109.715,343.365,108.909,346.761,108.909C350.065,108.909,352.796,109.623,354.953,111.050C357.110,112.478,358.601,114.273,359.428,116.437ZZM243.018,114.711L239.094,137.018C238.957,137.709,238.888,138.307,238.888,138.814C238.888,139.965,239.243,140.794,239.955,141.300C240.666,141.807,241.825,142.060,243.431,142.060L248.043,142.060L247.080,147.378L241.435,147.378C238.452,147.378,236.214,146.802,234.723,145.651C233.231,144.500,232.486,142.612,232.486,139.988C232.486,138.975,232.577,137.985,232.761,137.018L236.685,114.711L231.866,114.711L232.761,109.531L237.649,109.531L239.301,100.000L245.634,100.000L243.982,109.531L253.757,109.531L252.862,114.711L243.018,114.711ZZM323.975,108.840L322.804,115.332L321.152,115.332C317.894,115.332,315.175,116.207,312.995,117.957C310.815,119.706,309.357,122.653,308.623,126.797L304.975,147.378L298.710,147.378L305.388,109.531L311.652,109.531L310.413,116.713C311.928,114.227,313.832,112.293,316.127,110.912C318.421,109.531,321.037,108.840,323.975,108.840ZZM216.033,128.385C216.216,127.418,216.308,126.382,216.308,125.277C216.308,121.916,215.310,119.257,213.313,117.300C211.317,115.344,208.781,114.365,205.707,114.365C203.366,114.365,201.129,114.918,198.995,116.023C196.861,117.128,195.036,118.739,193.522,120.857C192.007,122.975,190.998,125.462,190.493,128.316C190.309,129.283,190.217,130.342,190.217,131.493C190.217,134.900,191.204,137.582,193.178,139.539C195.151,141.496,197.675,142.474,200.750,142.474C203.091,142.474,205.328,141.910,207.462,140.782C209.596,139.654,211.432,138.020,212.969,135.879C214.507,133.738,215.528,131.240,216.033,128.385ZZM357.362,128.385C357.546,127.418,357.638,126.382,357.638,125.277C357.638,121.916,356.639,119.257,354.643,117.300C352.647,115.344,350.111,114.365,347.036,114.365C344.696,114.365,342.458,114.918,340.324,116.023C338.190,117.128,336.366,118.739,334.851,120.857C333.337,122.975,332.327,125.462,331.822,128.316C331.639,129.283,331.547,130.342,331.547,131.493C331.547,134.900,332.534,137.582,334.507,139.539C336.481,141.496,339.005,142.474,342.080,142.474C344.420,142.474,346.658,141.910,348.792,140.782C350.926,139.654,352.761,138.020,354.299,135.879C355.836,133.738,356.857,131.240,357.362,128.385ZZ" fill-rule="evenodd" font-size="12" style="fill: rgb(0, 0, 0);"/></g><g fill-rule="evenodd" font-size="12" id="strokes-94a87c15-c868-802b-8006-9488786002a9-acd58fc1-87d0-8059-8006-9486ba040d6e" class="strokes"><g class="stroke-shape"><path d="M176.725,125.070L172.801,147.378L166.605,147.378L170.391,125.968C170.575,125.001,170.667,123.988,170.667,122.929C170.667,120.121,169.898,117.980,168.361,116.506C166.823,115.033,164.678,114.296,161.924,114.296C158.620,114.296,155.809,115.332,153.491,117.404C151.173,119.476,149.670,122.492,148.982,126.451L148.982,126.313L145.264,147.378L139.000,147.378L145.678,109.531L151.942,109.531L150.978,114.987C152.539,113.007,154.489,111.488,156.830,110.429C159.170,109.370,161.626,108.840,164.196,108.840C168.097,108.840,171.217,109.888,173.558,111.983C175.899,114.077,177.069,117.128,177.069,121.134C177.069,122.607,176.954,123.919,176.725,125.070ZZM288.522,109.531L294.786,109.531L288.109,147.378L281.844,147.378L282.808,141.853C281.293,143.786,279.366,145.283,277.025,146.342C274.685,147.401,272.252,147.930,269.728,147.930C265.781,147.930,262.626,146.860,260.263,144.719C257.899,142.578,256.717,139.504,256.717,135.499C256.717,134.486,256.832,133.220,257.062,131.700L260.986,109.531L267.181,109.531L263.464,130.871C263.280,131.838,263.188,132.851,263.188,133.910C263.188,136.719,263.957,138.848,265.495,140.299C267.032,141.749,269.178,142.474,271.931,142.474C275.236,142.474,278.046,141.438,280.364,139.366C282.682,137.294,284.162,134.279,284.804,130.319L284.804,130.526L288.522,109.531ZZM218.098,116.437L219.337,109.531L225.670,109.531L218.993,147.378L212.659,147.378L213.967,140.333C212.315,142.543,210.135,144.373,207.428,145.824C204.720,147.274,201.737,147.999,198.478,147.999C195.541,147.999,192.948,147.366,190.699,146.100C188.450,144.834,186.707,143.027,185.467,140.679C184.228,138.330,183.609,135.614,183.609,132.529C183.609,131.148,183.746,129.743,184.022,128.316C184.710,124.449,186.098,121.053,188.187,118.129C190.275,115.206,192.822,112.938,195.828,111.326C198.834,109.715,202.035,108.909,205.431,108.909C208.736,108.909,211.466,109.623,213.623,111.050C215.780,112.478,217.272,114.273,218.098,116.437ZZM359.428,116.437L360.667,109.531L367.000,109.531L360.322,147.378L353.989,147.378L355.297,140.333C353.645,142.543,351.465,144.373,348.757,145.824C346.050,147.274,343.066,147.999,339.808,147.999C336.871,147.999,334.278,147.366,332.029,146.100C329.780,144.834,328.036,143.027,326.797,140.679C325.558,138.330,324.938,135.614,324.938,132.529C324.938,131.148,325.076,129.743,325.351,128.316C326.040,124.449,327.428,121.053,329.516,118.129C331.604,115.206,334.152,112.938,337.158,111.326C340.164,109.715,343.365,108.909,346.761,108.909C350.065,108.909,352.796,109.623,354.953,111.050C357.110,112.478,358.601,114.273,359.428,116.437ZZM243.018,114.711L239.094,137.018C238.957,137.709,238.888,138.307,238.888,138.814C238.888,139.965,239.243,140.794,239.955,141.300C240.666,141.807,241.825,142.060,243.431,142.060L248.043,142.060L247.080,147.378L241.435,147.378C238.452,147.378,236.214,146.802,234.723,145.651C233.231,144.500,232.486,142.612,232.486,139.988C232.486,138.975,232.577,137.985,232.761,137.018L236.685,114.711L231.866,114.711L232.761,109.531L237.649,109.531L239.301,100.000L245.634,100.000L243.982,109.531L253.757,109.531L252.862,114.711L243.018,114.711ZZM323.975,108.840L322.804,115.332L321.152,115.332C317.894,115.332,315.175,116.207,312.995,117.957C310.815,119.706,309.357,122.653,308.623,126.797L304.975,147.378L298.710,147.378L305.388,109.531L311.652,109.531L310.413,116.713C311.928,114.227,313.832,112.293,316.127,110.912C318.421,109.531,321.037,108.840,323.975,108.840ZZM216.033,128.385C216.216,127.418,216.308,126.382,216.308,125.277C216.308,121.916,215.310,119.257,213.313,117.300C211.317,115.344,208.781,114.365,205.707,114.365C203.366,114.365,201.129,114.918,198.995,116.023C196.861,117.128,195.036,118.739,193.522,120.857C192.007,122.975,190.998,125.462,190.493,128.316C190.309,129.283,190.217,130.342,190.217,131.493C190.217,134.900,191.204,137.582,193.178,139.539C195.151,141.496,197.675,142.474,200.750,142.474C203.091,142.474,205.328,141.910,207.462,140.782C209.596,139.654,211.432,138.020,212.969,135.879C214.507,133.738,215.528,131.240,216.033,128.385ZZM357.362,128.385C357.546,127.418,357.638,126.382,357.638,125.277C357.638,121.916,356.639,119.257,354.643,117.300C352.647,115.344,350.111,114.365,347.036,114.365C344.696,114.365,342.458,114.918,340.324,116.023C338.190,117.128,336.366,118.739,334.851,120.857C333.337,122.975,332.327,125.462,331.822,128.316C331.639,129.283,331.547,130.342,331.547,131.493C331.547,134.900,332.534,137.582,334.507,139.539C336.481,141.496,339.005,142.474,342.080,142.474C344.420,142.474,346.658,141.910,348.792,140.782C350.926,139.654,352.761,138.020,354.299,135.879C355.836,133.738,356.857,131.240,357.362,128.385ZZ" style="fill: none; stroke-width: 0.945; stroke: rgb(0, 0, 0); stroke-opacity: 1;"/></g></g></g></g></g></g></g></g></svg>